#N canvas 48 23 1062 578 24;
#X floatatom 62 266 5 0 0 0 - - -;
#X floatatom 397 265 5 0 0 0 - - -;
#X floatatom 731 267 5 0 0 0 - - -;
#X obj 62 229 r 0-nfoscAlive;
#X obj 397 229 r 1-nfoscAlive;
#X obj 731 231 r 2-nfoscAlive;
#N canvas 108 123 712 318 nfoscDispatcher 0;
#X msg 438 226 \; \$2-nfoscAlive 0;
#X obj 45 41 dumpOSC 3333;
#X obj 45 157 print;
#X obj 192 153 OSCroute /add /del;
#X obj 192 100 OSCroute /nfosc;
#X msg 192 226 \; \$2-nfoscAlive 1;
#X connect 1 0 4 0;
#X connect 3 0 5 0;
#X connect 3 1 0 0;
#X connect 4 0 3 0;
#X connect 4 0 2 0;
#X restore 64 92 pd nfoscDispatcher;
#N canvas 16 68 747 557 loadSamples 0;
#X obj 45 16 loadbang;
#X obj 44 181 soundfiler;
#X obj 44 243 soundfiler;
#X obj 44 311 soundfiler;
#X msg 99 74 \; pd dsp 1;
#X msg 44 156 read -resize sample0.wav sample0-table;
#N canvas 0 22 450 300 (subpatch) 0;
#X array sample0-table 88200 float 2;
#X coords 0 1 88200 -1 200 140 1;
#X restore 36 384 graph;
#X msg 44 218 read -resize sample1.wav sample1-table;
#X msg 44 286 read -resize sample2.wav sample2-table;
#N canvas 0 22 450 300 (subpatch) 0;
#X array sample1-table 88200 float 2;
#X coords 0 1 88200 -1 200 140 1;
#X restore 274 384 graph;
#N canvas 0 22 450 300 (subpatch) 0;
#X array sample2-table 88200 float 2;
#X coords 0 1 88200 -1 200 140 1;
#X restore 513 385 graph;
#X connect 0 0 5 0;
#X connect 0 0 7 0;
#X connect 0 0 8 0;
#X connect 0 0 4 0;
#X connect 5 0 1 0;
#X connect 7 0 2 0;
#X connect 8 0 3 0;
#X restore 493 92 pd loadSamples;
#X obj 62 395 tabplay~ sample0-table;
#X obj 378 534 dac~;
#X obj 62 310 route 1 0;
#X msg 458 356 stop;
#X obj 397 311 route 1 0;
#X msg 792 353 stop;
#X obj 731 311 route 1 0;
#X obj 397 397 tabplay~ sample1-table;
#X obj 731 399 tabplay~ sample2-table;
#X text 65 34 Dispatching NFOSC events based on the dynamic RFID tag
ID.;
#X text 63 155 The x-nfoscAlive message indicates if the indicated
RFID tags are present. In this case we listen to tag ID 0 \, 1 & 2
;
#X msg 123 353 stop;
#X connect 0 0 10 0;
#X connect 1 0 12 0;
#X connect 2 0 14 0;
#X connect 3 0 0 0;
#X connect 4 0 1 0;
#X connect 5 0 2 0;
#X connect 8 0 9 0;
#X connect 8 0 9 1;
#X connect 8 1 0 0;
#X connect 10 0 8 0;
#X connect 10 1 19 0;
#X connect 12 0 15 0;
#X connect 12 1 11 0;
#X connect 14 0 16 0;
#X connect 14 1 13 0;
#X connect 15 0 9 0;
#X connect 15 0 9 1;
#X connect 15 1 1 0;
#X connect 16 0 9 0;
#X connect 16 0 9 1;
#X connect 16 1 2 0;
